<svg width="234" height="49" viewBox="0 0 234 49" fill="none" xmlns="http://www.w3.org/2000/svg">
<path opacity="0.4" fill-rule="evenodd" clip-rule="evenodd" d="M7.07875 40.2714C9.19579 44.3217 11.5961 45.809 13.4397 45.809C15.2833 45.809 17.6836 44.3218 19.8006 40.2714C21.8426 36.3648 23.1954 30.7599 23.1954 24.4045C23.1954 18.0491 21.8426 12.4442 19.8006 8.53757C17.6836 4.48722 15.2833 3 13.4397 3C11.5961 3 9.19579 4.48722 7.07876 8.53757C5.03684 12.4442 3.68396 18.0491 3.68396 24.4045C3.68396 30.7599 5.03684 36.3648 7.07875 40.2714ZM0.683959 24.4045C0.683958 37.8827 6.3949 48.809 13.4397 48.809C20.4845 48.809 26.1954 37.8827 26.1954 24.4045C26.1954 10.9263 20.4845 -2.49633e-07 13.4397 -5.57571e-07C6.3949 -8.65509e-07 0.683959 10.9263 0.683959 24.4045Z" fill="#001B43"/>
<path opacity="0.7" fill-rule="evenodd" clip-rule="evenodd" d="M18.198 40.2714C20.3151 44.3217 22.7153 45.809 24.559 45.809C26.4026 45.809 28.8029 44.3218 30.9199 40.2714C32.9618 36.3648 34.3147 30.7599 34.3147 24.4045C34.3147 18.0491 32.9618 12.4442 30.9199 8.53757C28.8029 4.48722 26.4026 3 24.559 3C22.7153 3 20.3151 4.48722 18.198 8.53757C16.1561 12.4442 14.8032 18.0491 14.8032 24.4045C14.8032 30.7599 16.1561 36.3648 18.198 40.2714ZM11.8032 24.4045C11.8032 37.8827 17.5142 48.809 24.559 48.809C31.6038 48.809 37.3147 37.8827 37.3147 24.4045C37.3147 10.9263 31.6038 -2.49633e-07 24.559 -5.57571e-07C17.5142 -8.65509e-07 11.8032 10.9263 11.8032 24.4045Z" fill="#001B43"/>
<path d="M26.4053 35.9448C20.054 35.9448 14.9053 30.7961 14.9053 24.4448C14.9053 18.0935 20.054 12.9448 26.4053 12.9448C32.7565 12.9448 37.9053 18.0936 37.9053 24.4448C37.9053 30.7961 32.7565 35.9448 26.4053 35.9448Z" fill="url(#paint0_linear_4214:8454)"/>
<path fill-rule="evenodd" clip-rule="evenodd" d="M29.3174 40.2714C31.4344 44.3217 33.8347 45.809 35.6783 45.809C37.522 45.809 39.9222 44.3218 42.0393 40.2714C44.0812 36.3648 45.4341 30.7599 45.4341 24.4045C45.4341 18.0491 44.0812 12.4442 42.0393 8.53757C39.9222 4.48722 37.522 3 35.6783 3C33.8347 3 31.4344 4.48722 29.3174 8.53757C27.2755 12.4442 25.9226 18.0491 25.9226 24.4045C25.9226 30.7599 27.2755 36.3648 29.3174 40.2714ZM22.9226 24.4045C22.9226 37.8827 28.6335 48.809 35.6783 48.809C42.7231 48.809 48.4341 37.8827 48.4341 24.4045C48.4341 10.9263 42.7231 -2.49633e-07 35.6783 -5.57571e-07C28.6335 -8.65509e-07 22.9226 10.9263 22.9226 24.4045Z" fill="#001B43"/>
<path d="M65.2368 34C64.1728 34 63.2582 33.6173 62.4928 32.852C61.7275 32.0867 61.3448 31.172 61.3448 30.108V17.732C61.3448 16.668 61.7275 15.7533 62.4928 14.988C63.2582 14.2227 64.1728 13.84 65.2368 13.84H81.4488V17.564H66.0208C65.4982 17.564 65.1995 17.6013 65.1248 17.676C65.0688 17.732 65.0408 18.0213 65.0408 18.544V29.296C65.0408 29.8187 65.0688 30.1173 65.1248 30.192C65.1995 30.248 65.4982 30.276 66.0208 30.276H81.4488V34H65.2368ZM86.5523 34V12.44H90.2203V17.76H99.1803C100.226 17.76 101.131 18.1427 101.896 18.908C102.662 19.6547 103.044 20.56 103.044 21.624V34H99.3763V22.408C99.3763 21.8853 99.3389 21.596 99.2643 21.54C99.2083 21.4653 98.9189 21.428 98.3963 21.428H91.2003C90.6776 21.428 90.3789 21.4653 90.3043 21.54C90.2483 21.596 90.2203 21.8853 90.2203 22.408V34H86.5523ZM111.358 34C110.294 34 109.379 33.6267 108.614 32.88C107.867 32.1147 107.494 31.2 107.494 30.136V24.032H120.318V22.408C120.318 21.8853 120.281 21.596 120.206 21.54C120.15 21.4653 119.861 21.428 119.338 21.428H107.494V17.76H120.122C121.186 17.76 122.091 18.1427 122.838 18.908C123.603 19.6547 123.986 20.56 123.986 21.624V34H111.358ZM112.142 30.332H120.318V27.336H111.162V29.352C111.162 29.8747 111.19 30.1733 111.246 30.248C111.321 30.304 111.619 30.332 112.142 30.332ZM129.175 34V17.76H132.843V34H129.175ZM129.175 16.136V12.44H132.843V16.136H129.175ZM138.335 34V17.76H150.963C152.027 17.76 152.932 18.1427 153.679 18.908C154.444 19.6547 154.827 20.56 154.827 21.624V34H151.159V22.408C151.159 21.8853 151.121 21.596 151.047 21.54C150.991 21.4653 150.701 21.428 150.179 21.428H142.983C142.46 21.428 142.161 21.4653 142.087 21.54C142.031 21.596 142.003 21.8853 142.003 22.408V34H138.335ZM160.127 34V13.868H176.367C177.45 13.868 178.374 14.2507 179.139 15.016C179.904 15.7813 180.287 16.696 180.287 17.76V23.192C180.287 24.256 179.904 25.1707 179.139 25.936C178.374 26.7013 177.45 27.084 176.367 27.084L163.823 27.112V34H160.127ZM164.803 23.36H175.583C176.087 23.36 176.376 23.332 176.451 23.276C176.526 23.2013 176.563 22.912 176.563 22.408V18.544C176.563 18.0213 176.526 17.732 176.451 17.676C176.376 17.6013 176.087 17.564 175.583 17.564H164.803C164.28 17.564 163.982 17.6013 163.907 17.676C163.851 17.732 163.823 18.0213 163.823 18.544V22.408C163.823 22.912 163.851 23.2013 163.907 23.276C163.982 23.332 164.28 23.36 164.803 23.36ZM188.239 34C187.175 34 186.261 33.6267 185.495 32.88C184.749 32.1147 184.375 31.2 184.375 30.136V21.624C184.375 20.56 184.749 19.6547 185.495 18.908C186.261 18.1427 187.175 17.76 188.239 17.76H197.003C198.067 17.76 198.973 18.1427 199.719 18.908C200.485 19.6547 200.867 20.56 200.867 21.624V30.136C200.867 31.2 200.485 32.1147 199.719 32.88C198.973 33.6267 198.067 34 197.003 34H188.239ZM189.023 30.332H196.219C196.742 30.332 197.031 30.304 197.087 30.248C197.162 30.1733 197.199 29.8747 197.199 29.352V22.408C197.199 21.8853 197.162 21.596 197.087 21.54C197.031 21.4653 196.742 21.428 196.219 21.428H189.023C188.501 21.428 188.202 21.4653 188.127 21.54C188.071 21.596 188.043 21.8853 188.043 22.408V29.352C188.043 29.8747 188.071 30.1733 188.127 30.248C188.202 30.304 188.501 30.332 189.023 30.332ZM205.401 34V21.624C205.401 20.56 205.774 19.6547 206.521 18.908C207.286 18.1427 208.201 17.76 209.265 17.76H218.281V21.428H210.049C209.526 21.428 209.228 21.4653 209.153 21.54C209.097 21.596 209.069 21.8853 209.069 22.408V34H205.401ZM226.162 34C225.098 34 224.183 33.6267 223.418 32.88C222.671 32.1147 222.298 31.2 222.298 30.136V12.776H225.966V17.76H232.294V21.428H225.966V29.352C225.966 29.8747 225.994 30.1733 226.05 30.248C226.125 30.304 226.423 30.332 226.946 30.332H232.294V34H226.162Z" fill="#001B43"/>
<defs>
<linearGradient id="paint0_linear_4214:8454" x1="26.7255" y1="24.4448" x2="14.9053" y2="24.4448" gradientUnits="userSpaceOnUse">
<stop stop-color="#001B43"/>
<stop offset="1" stop-color="white" stop-opacity="0"/>
</linearGradient>
</defs>
</svg>
