<svg width="292" height="100" viewBox="0 0 292 100" fill="none" xmlns="http://www.w3.org/2000/svg">
<path fill-rule="evenodd" clip-rule="evenodd" d="M18.7301 19.5313C19.7723 20.5736 20.2825 21.9464 20.2606 23.3123L34 37.0516L39.8632 31.1883C39.8414 29.8224 40.3515 28.4497 41.3938 27.4074C43.4356 25.3656 46.7459 25.3656 48.7877 27.4074C50.8294 29.4492 50.8294 32.7595 48.7877 34.8013C47.7454 35.8435 46.3727 36.3537 45.0068 36.3319L39.2275 42.1111C39.2494 43.477 38.7391 44.8497 37.6969 45.892C35.6552 47.9337 32.3448 47.9337 30.3031 45.892C29.2608 44.8497 28.7506 43.477 28.7724 42.1111L15.1172 28.4558C13.7512 28.4776 12.3784 27.9674 11.3362 26.9252C9.29443 24.8834 9.29443 21.5731 11.3362 19.5313C13.378 17.4896 16.6883 17.4896 18.7301 19.5313ZM16.8013 37.2122C14.7595 35.1705 11.4492 35.1705 9.40743 37.2122C7.36564 39.254 7.36564 42.5643 9.40743 44.6061C10.4497 45.6484 11.8224 46.1586 13.1883 46.1368L19.0516 52L5.31227 65.7392C3.94638 65.7174 2.57357 66.2277 1.53132 67.2699C-0.51044 69.3117 -0.51044 72.622 1.53132 74.6638C3.57308 76.7055 6.88343 76.7055 8.92521 74.6638C9.96746 73.6215 10.4776 72.2487 10.4558 70.8828L24.1111 57.2276C25.477 57.2494 26.8498 56.7391 27.892 55.6969C29.9338 53.6551 29.9338 50.3448 27.892 48.303C26.8498 47.2608 25.477 46.7506 24.1111 46.7725L18.3319 40.9932C18.3537 39.6273 17.8435 38.2545 16.8013 37.2122ZM52.8829 75.5442L39.2276 61.8889C39.2494 60.523 38.7392 59.1502 37.6969 58.108C35.6552 56.0662 32.3448 56.0662 30.3031 58.108C29.2608 59.1502 28.7506 60.523 28.7724 61.8889L22.9932 67.6681C21.6274 67.6463 20.2545 68.1565 19.2123 69.1987C17.1705 71.2405 17.1705 74.5508 19.2123 76.5926C21.254 78.6344 24.5644 78.6344 26.6061 76.5926C27.6484 75.5504 28.1586 74.1776 28.1368 72.8116L34 66.9485L47.7393 80.6877C47.7175 82.0536 48.2277 83.4264 49.27 84.4687C51.3117 86.5104 54.6221 86.5104 56.6638 84.4687C58.7056 82.4269 58.7056 79.1166 56.6638 77.0748C55.6216 76.0326 54.2487 75.5224 52.8829 75.5442ZM66.4687 36.7301C65.4264 37.7724 64.0537 38.2825 62.6878 38.2607L48.9485 52L54.8117 57.8632C56.1776 57.8414 57.5504 58.3516 58.5927 59.3938C60.6344 61.4356 60.6344 64.7459 58.5927 66.7877C56.5509 68.8294 53.2406 68.8294 51.1988 66.7877C50.1566 65.7454 49.6463 64.3727 49.6681 63.0067L43.889 57.2276C42.523 57.2494 41.1503 56.7391 40.108 55.6969C38.0662 53.6551 38.0662 50.3448 40.108 48.303C41.1503 47.2608 42.523 46.7506 43.889 46.7725L57.5442 33.1171C57.5224 31.7513 58.0326 30.3785 59.0749 29.3363C61.1166 27.2945 64.427 27.2945 66.4687 29.3363C68.5104 31.378 68.5104 34.6884 66.4687 36.7301Z" fill="#005EFF"/>
<path d="M82.8 81L102.32 51.88L83.36 23.4H95.16L108.28 43.68L121.28 23.4H133.16L114.2 51.88L133.64 81H121.84L108.28 60.08L94.68 81H82.8ZM136.822 81V23.4H155.182C155.662 23.4 156.609 23.4133 158.022 23.44C159.462 23.4667 160.849 23.56 162.182 23.72C166.742 24.3067 170.595 25.9333 173.742 28.6C176.915 31.24 179.315 34.6133 180.942 38.72C182.569 42.8267 183.382 47.32 183.382 52.2C183.382 57.08 182.569 61.5733 180.942 65.68C179.315 69.7867 176.915 73.1733 173.742 75.84C170.595 78.48 166.742 80.0933 162.182 80.68C160.875 80.84 159.502 80.9333 158.062 80.96C156.622 80.9867 155.662 81 155.182 81H136.822ZM146.622 71.92H155.182C155.982 71.92 156.995 71.8933 158.222 71.84C159.475 71.7867 160.582 71.6667 161.542 71.48C164.262 70.9733 166.475 69.76 168.182 67.84C169.889 65.92 171.142 63.5867 171.942 60.84C172.769 58.0933 173.182 55.2133 173.182 52.2C173.182 49.08 172.769 46.1467 171.942 43.4C171.115 40.6533 169.835 38.3467 168.102 36.48C166.395 34.6133 164.209 33.4267 161.542 32.92C160.582 32.7067 159.475 32.5867 158.222 32.56C156.995 32.5067 155.982 32.48 155.182 32.48H146.622V71.92ZM184.075 81L202.235 23.4H216.355L234.515 81H224.595L208.115 29.32H210.275L193.995 81H184.075ZM194.195 68.52V59.52H224.435V68.52H194.195ZM261.344 82.2C255.584 82.2 250.651 80.9467 246.544 78.44C242.438 75.9067 239.278 72.3867 237.064 67.88C234.878 63.3733 233.784 58.1467 233.784 52.2C233.784 46.2533 234.878 41.0267 237.064 36.52C239.278 32.0133 242.438 28.5067 246.544 26C250.651 23.4667 255.584 22.2 261.344 22.2C267.104 22.2 272.038 23.4667 276.144 26C280.278 28.5067 283.438 32.0133 285.624 36.52C287.838 41.0267 288.944 46.2533 288.944 52.2C288.944 58.1467 287.838 63.3733 285.624 67.88C283.438 72.3867 280.278 75.9067 276.144 78.44C272.038 80.9467 267.104 82.2 261.344 82.2ZM261.344 73.12C265.211 73.1467 268.424 72.2933 270.984 70.56C273.571 68.8267 275.504 66.3867 276.784 63.24C278.091 60.0933 278.744 56.4133 278.744 52.2C278.744 47.9867 278.091 44.3333 276.784 41.24C275.504 38.12 273.571 35.6933 270.984 33.96C268.424 32.2267 265.211 31.3333 261.344 31.28C257.478 31.2533 254.264 32.1067 251.704 33.84C249.144 35.5733 247.211 38.0133 245.904 41.16C244.624 44.3067 243.984 47.9867 243.984 52.2C243.984 56.4133 244.624 60.08 245.904 63.2C247.184 66.2933 249.104 68.7067 251.664 70.44C254.251 72.1733 257.478 73.0667 261.344 73.12Z" fill="black"/>
</svg>
